<?xml version="1.0" encoding="UTF-8"?>
<svg width="24" height="24" viewBox="0 0 24 24" fill="none" stroke="currentColor" stroke-width="2" stroke-linecap="round" stroke-linejoin="round" xmlns="http://www.w3.org/2000/svg">
  <!-- Book Base -->
  <path d="M4 19.5A2.5 2.5 0 0 1 6.5 17H20" />
  <path d="M6.5 2H20v20H6.5A2.5 2.5 0 0 1 4 19.5v-15A2.5 2.5 0 0 1 6.5 2z" />
  <!-- Brain Inside -->
  <path d="M12 6c1.5 0 2.5 1 2.5 2s-1 2-2.5 2-2.5-1-2.5-2 1-2 2.5-2z" />
  <path d="M12 10c1.5 0 2.5 1 2.5 2s-1 2-2.5 2-2.5-1-2.5-2 1-2 2.5-2z" />
  <path d="M14.5 8c1 0 1.5.5 1.5 1.5s-.5 1.5-1.5 1.5" />
  <path d="M9.5 8c-1 0-1.5.5-1.5 1.5s.5 1.5 1.5 1.5" />
  <!-- Sparkles -->
  <circle cx="16" cy="7" r="0.5" />
  <circle cx="18" cy="9" r="0.5" />
  <circle cx="17" cy="11" r="0.5" />
</svg>
